<svg xmlns="http://www.w3.org/2000/svg" version="1.1" xmlns:xlink="http://www.w3.org/1999/xlink" xmlns:svgjs="http://svgjs.dev/svgjs" width="1500" height="1500" viewBox="0 0 1500 1500"><rect width="1500" height="1500" fill="#000000"></rect><g transform="matrix(0.6666666666666666,0,0,0.6666666666666666,249.39393939393938,576.2115422495456)"><svg viewBox="0 0 396 137" data-background-color="#ffffff" preserveAspectRatio="xMidYMid meet" height="518" width="1500" xmlns="http://www.w3.org/2000/svg" xmlns:xlink="http://www.w3.org/1999/xlink"><g id="tight-bounds" transform="matrix(1,0,0,1,0.2400000000000091,0.44503487976521683)"><svg viewBox="0 0 395.52 136.10993024046954" height="136.10993024046954" width="395.52"><g><svg viewBox="0 0 584.0831735020786 200.99999999999997" height="136.10993024046954" width="395.52"><g><rect width="5.595528236489608" height="200.99999999999997" x="214.64797967667437" y="0" fill="#ffffff" opacity="1" stroke-width="0" stroke="transparent" fill-opacity="1" class="rect-yte-0" data-fill-palette-color="primary" rx="1%" id="yte-0" data-palette-color="#7ea1be"></rect></g><g transform="matrix(1,0,0,1,234.89148758983833,0.4999999999999858)"><svg viewBox="0 0 349.1916859122402 200" height="200" width="349.1916859122402"><g id="textblocktransform"><svg viewBox="0 0 349.1916859122402 200" height="200" width="349.1916859122402" id="textblock"><g><svg viewBox="0 0 349.1916859122402 200" height="200" width="349.1916859122402"><g transform="matrix(1,0,0,1,0,0)"><svg width="349.1916859122402" viewBox="0.5999999999999979 -38.9 226.79999999999998 126.19999999999999" height="200" data-palette-color="#7ea1be"><svg></svg><svg></svg><svg></svg><g class="wordmark-text-0" data-fill-palette-color="primary" id="text-0"><path d="M29.25-38.9l8.45 30.7h2v8.2h-19.6v-8.2h3l-0.8-4h-6.8l-0.8 4h3v8.2h-17.1v-8.2h2l8.45-30.7zM18.65-27.45l-2.05 9.95h4.6l-2.05-9.95zM56.15 0.7c-4.767 0-8.483-1.243-11.15-3.73-2.667-2.48-4-6.103-4-10.87v0c0-4.767 1.333-8.393 4-10.88 2.667-2.48 6.367-3.72 11.1-3.72v0c2.3 0 4.5 0.317 6.6 0.95 2.1 0.633 3.733 1.35 4.9 2.15v0 9.9h-8.6v-0.9c0-1.1-0.233-1.907-0.7-2.42-0.467-0.52-1.2-0.78-2.2-0.78v0c-1.933 0-2.9 1.067-2.9 3.2v0 4.3c0 2.6 1.483 3.9 4.45 3.9v0c2.767 0 5.983-0.3 9.65-0.9v0 7.85c-1.133 0.5-2.723 0.95-4.77 1.35-2.053 0.4-4.18 0.6-6.38 0.6zM84.2 0.7c-4.733 0-8.433-1.243-11.1-3.73-2.667-2.48-4-6.103-4-10.87v0c0-4.767 1.333-8.393 4-10.88 2.667-2.48 6.367-3.72 11.1-3.72v0c4.8 0 8.517 1.257 11.15 3.77 2.633 2.52 3.95 6.13 3.95 10.83v0c0 4.767-1.333 8.39-4 10.87-2.667 2.487-6.367 3.73-11.1 3.73zM84.2-8.2c0.967 0 1.693-0.257 2.18-0.77 0.48-0.52 0.72-1.33 0.72-2.43v0-5c0-1.1-0.24-1.907-0.72-2.42-0.487-0.52-1.213-0.78-2.18-0.78v0c-0.967 0-1.69 0.26-2.17 0.78-0.487 0.513-0.73 1.32-0.73 2.42v0 5c0 1.1 0.243 1.91 0.73 2.43 0.48 0.513 1.203 0.77 2.17 0.77zM131.6-8.2h2.2v8.2h-13.7v-3.9c-2.4 3.067-5.4 4.6-9 4.6v0c-2.767 0-4.84-0.867-6.22-2.6-1.387-1.733-2.08-4.117-2.08-7.15v0-10.55h-2.2v-8.2h13.7v16.4c0 1.1 0.243 1.91 0.73 2.43 0.48 0.513 1.203 0.77 2.17 0.77v0c0.967 0 1.693-0.257 2.18-0.77 0.48-0.52 0.72-1.33 0.72-2.43v0-8.2h-2.7v-8.2h14.2zM147.35 0.7c-4.2 0-8.25-0.667-12.15-2v0-7.4h8.1v0.5c0 1.6 1.017 2.4 3.05 2.4v0c1.8 0 2.7-0.617 2.7-1.85v0c0-0.667-0.257-1.167-0.77-1.5-0.52-0.333-1.43-0.617-2.73-0.85v0l-2.5-0.45c-5.233-0.933-7.85-3.9-7.85-8.9v0c0-2.9 1.1-5.15 3.3-6.75 2.2-1.6 5.167-2.4 8.9-2.4v0c4.167 0 7.683 0.7 10.55 2.1v0 6.95h-7.6v-0.5c0-0.667-0.223-1.177-0.67-1.53-0.453-0.347-1.113-0.52-1.98-0.52v0c-1.667 0-2.5 0.533-2.5 1.6v0c0 0.567 0.233 1 0.7 1.3 0.467 0.3 1.317 0.583 2.55 0.85v0l2.85 0.55c2.967 0.567 5.083 1.617 6.35 3.15 1.267 1.533 1.9 3.5 1.9 5.9v0c0 3.033-1.057 5.35-3.17 6.95-2.12 1.6-5.13 2.4-9.03 2.4zM173.5 0.7c-3.533 0-6.19-0.86-7.97-2.58-1.787-1.713-2.68-4.603-2.68-8.67v0-9.05h-2.2v-8.2c1.267 0 2.217-0.327 2.85-0.98 0.633-0.647 0.95-1.537 0.95-2.67v0-2.25h10.6v5.9h6.75v8.2h-6.75v8.2c0 1.1 0.243 1.91 0.73 2.43 0.48 0.513 1.203 0.77 2.17 0.77v0c1.267 0 2.65-0.15 4.15-0.45v0 7.85c-0.933 0.367-2.193 0.71-3.78 1.03-1.58 0.313-3.187 0.47-4.82 0.47zM196.3-30.55h-10.2v-8.35h10.2zM199.6 0h-15.9v-8.2h2.2v-11.4h-2.2v-8.2h13.7v19.6h2.2zM215.95 0.7c-4.767 0-8.483-1.243-11.15-3.73-2.667-2.48-4-6.103-4-10.87v0c0-4.767 1.333-8.393 4-10.88 2.667-2.48 6.367-3.72 11.1-3.72v0c2.3 0 4.5 0.317 6.6 0.95 2.1 0.633 3.733 1.35 4.9 2.15v0 9.9h-8.6v-0.9c0-1.1-0.233-1.907-0.7-2.42-0.467-0.52-1.2-0.78-2.2-0.78v0c-1.933 0-2.9 1.067-2.9 3.2v0 4.3c0 2.6 1.483 3.9 4.45 3.9v0c2.767 0 5.983-0.3 9.65-0.9v0 7.85c-1.133 0.5-2.723 0.95-4.77 1.35-2.053 0.4-4.18 0.6-6.38 0.6z" fill="#ffffff" fill-rule="nonzero" stroke="none" stroke-width="1" stroke-linecap="butt" stroke-linejoin="miter" stroke-miterlimit="10" stroke-dasharray="" stroke-dashoffset="0" font-family="none" font-weight="none" font-size="none" text-anchor="none" style="mix-blend-mode: normal" data-fill-palette-color="primary" opacity="1"></path><path transform="translate(0,43.3)" d="M56.15-38.9v8.2h-2.5v22.5h2.5v8.2h-18.9v-8.2h2.4v-17.5l-8.5 25.7h-7.4l-8.75-25.45v17.25h2.4v8.2h-16.4v-8.2h2.5v-22.5h-2.5v-8.2h22.9l5.2 15.6 5-15.6zM72.95 0.7c-4.733 0-8.433-1.243-11.1-3.73-2.667-2.48-4-6.103-4-10.87v0c0-4.767 1.333-8.393 4-10.88 2.667-2.48 6.367-3.72 11.1-3.72v0c4.7 0 8.093 1.223 10.18 3.67 2.08 2.453 3.12 5.497 3.12 9.13v0 3.6h-16.2v0.3c0 1.233 0.367 2.14 1.1 2.72 0.733 0.587 1.95 0.88 3.65 0.88v0c2.033 0 3.967-0.15 5.8-0.45 1.833-0.3 3.433-0.683 4.8-1.15v0 8c-1.167 0.633-2.873 1.207-5.12 1.72-2.253 0.52-4.697 0.78-7.33 0.78zM70.05-17.6h5.8v-0.6c0-1.133-0.24-1.95-0.72-2.45-0.487-0.5-1.213-0.75-2.18-0.75v0c-0.967 0-1.69 0.257-2.17 0.77-0.487 0.52-0.73 1.33-0.73 2.43v0zM97.6 0.7c-3.4 0-5.957-1.267-7.67-3.8-1.72-2.533-2.58-6.133-2.58-10.8v0c0-4.667 0.86-8.267 2.58-10.8 1.713-2.533 4.27-3.8 7.67-3.8v0c1.7 0 3.21 0.417 4.53 1.25 1.313 0.833 2.387 1.783 3.22 2.85v0-6.3h-2.95v-8.2h14.45v30.7h2.2v8.2h-13.7v-3.4c-0.833 1.067-1.907 2.017-3.22 2.85-1.32 0.833-2.83 1.25-4.53 1.25zM102.45-8.2c0.967 0 1.693-0.257 2.18-0.77 0.48-0.52 0.72-1.33 0.72-2.43v0-5c0-1.1-0.24-1.907-0.72-2.42-0.487-0.52-1.213-0.78-2.18-0.78v0c-0.967 0-1.69 0.26-2.17 0.78-0.487 0.513-0.73 1.32-0.73 2.42v0 5c0 1.1 0.243 1.91 0.73 2.43 0.48 0.513 1.203 0.77 2.17 0.77zM133.25-30.55h-10.2v-8.35h10.2zM136.55 0h-15.9v-8.2h2.2v-11.4h-2.2v-8.2h13.7v19.6h2.2zM152.9 0.7c-4.767 0-8.483-1.243-11.15-3.73-2.667-2.48-4-6.103-4-10.87v0c0-4.767 1.333-8.393 4-10.88 2.667-2.48 6.367-3.72 11.1-3.72v0c2.3 0 4.5 0.317 6.6 0.95 2.1 0.633 3.733 1.35 4.9 2.15v0 9.9h-8.6v-0.9c0-1.1-0.233-1.907-0.7-2.42-0.467-0.52-1.2-0.78-2.2-0.78v0c-1.933 0-2.9 1.067-2.9 3.2v0 4.3c0 2.6 1.483 3.9 4.45 3.9v0c2.767 0 5.983-0.3 9.65-0.9v0 7.85c-1.133 0.5-2.723 0.95-4.77 1.35-2.053 0.4-4.18 0.6-6.38 0.6zM193-8.2h2.2v8.2h-13.2v-3.4c-0.733 1.067-1.757 2.017-3.07 2.85-1.32 0.833-2.93 1.25-4.83 1.25v0c-2.5 0-4.467-0.667-5.9-2-1.433-1.333-2.15-3.217-2.15-5.65v0c0-6.3 5.35-9.533 16.05-9.7v0c-0.1-1.133-0.533-1.91-1.3-2.33-0.767-0.413-2.067-0.62-3.9-0.62v0c-1.5 0-3.107 0.157-4.82 0.47-1.72 0.32-3.297 0.747-4.73 1.28v0-9.2c1.767-0.433 3.683-0.783 5.75-1.05 2.067-0.267 4.083-0.4 6.05-0.4v0c4.967 0 8.517 0.9 10.65 2.7 2.133 1.8 3.2 4.583 3.2 8.35v0zM182-11.4v-0.3c-1.5 0-2.657 0.2-3.47 0.6-0.82 0.4-1.23 1.067-1.23 2v0c0 0.567 0.177 1.023 0.53 1.37 0.347 0.353 0.837 0.53 1.47 0.53v0c0.867 0 1.533-0.367 2-1.1 0.467-0.733 0.7-1.767 0.7-3.1zM212.7 0.05h-15.9v-8.25h2.2v-22.5h-2.2v-8.2h13.7v30.7h2.2z" fill="#ffffff" fill-rule="nonzero" stroke="none" stroke-width="1" stroke-linecap="butt" stroke-linejoin="miter" stroke-miterlimit="10" stroke-dasharray="" stroke-dashoffset="0" font-family="none" font-weight="none" font-size="none" text-anchor="none" style="mix-blend-mode: normal" data-fill-palette-color="primary" opacity="1"></path><path transform="translate(0,86.6)" d="M20.4 0.7c-6.3 0-11.157-1.6-14.57-4.8-3.42-3.2-5.13-8.317-5.13-15.35v0c0-13.433 6.533-20.15 19.6-20.15v0c3.167 0 6.11 0.383 8.83 1.15 2.713 0.767 4.737 1.617 6.07 2.55v0 12.5h-12v-3.6c0-1.267-0.283-2.2-0.85-2.8-0.567-0.6-1.417-0.9-2.55-0.9v0c-1.133 0-1.983 0.3-2.55 0.9-0.567 0.6-0.85 1.533-0.85 2.8v0 15.1c0 1.267 0.283 2.2 0.85 2.8 0.567 0.6 1.417 0.9 2.55 0.9v0c1.133 0 1.983-0.3 2.55-0.9 0.567-0.6 0.85-1.533 0.85-2.8v0-4.05h12v12.95c-1.367 0.933-3.39 1.783-6.07 2.55-2.687 0.767-5.597 1.15-8.73 1.15zM51.9 0.7c-4.733 0-8.433-1.243-11.1-3.73-2.667-2.48-4-6.103-4-10.87v0c0-4.767 1.333-8.393 4-10.88 2.667-2.48 6.367-3.72 11.1-3.72v0c4.7 0 8.093 1.223 10.18 3.67 2.08 2.453 3.12 5.497 3.12 9.13v0 3.6h-16.2v0.3c0 1.233 0.367 2.14 1.1 2.72 0.733 0.587 1.95 0.88 3.65 0.88v0c2.033 0 3.967-0.15 5.8-0.45 1.833-0.3 3.433-0.683 4.8-1.15v0 8c-1.167 0.633-2.873 1.207-5.12 1.72-2.253 0.52-4.697 0.78-7.33 0.78zM49-17.6h5.8v-0.6c0-1.133-0.24-1.95-0.72-2.45-0.487-0.5-1.213-0.75-2.18-0.75v0c-0.967 0-1.69 0.257-2.17 0.77-0.487 0.52-0.73 1.33-0.73 2.43v0zM97.7-8.2h2.2v8.2h-15.8v-8.2h2.1v-8.2c0-1.1-0.233-1.907-0.7-2.42-0.467-0.52-1.167-0.78-2.1-0.78v0c-2 0-3 1.067-3 3.2v0 8.2h2.1v8.2h-15.8v-8.2h2.2v-11.4h-2.2v-8.2h13.7v3.9c2.4-3.067 5.4-4.6 9-4.6v0c2.767 0 4.843 0.867 6.23 2.6 1.38 1.733 2.07 4.117 2.07 7.15v0zM113.85 0.7c-3.533 0-6.19-0.86-7.97-2.58-1.787-1.713-2.68-4.603-2.68-8.67v0-9.05h-2.2v-8.2c1.267 0 2.217-0.327 2.85-0.98 0.633-0.647 0.95-1.537 0.95-2.67v0-2.25h10.6v5.9h6.75v8.2h-6.75v8.2c0 1.1 0.243 1.91 0.73 2.43 0.48 0.513 1.203 0.77 2.17 0.77v0c1.267 0 2.65-0.15 4.15-0.45v0 7.85c-0.933 0.367-2.19 0.71-3.77 1.03-1.587 0.313-3.197 0.47-4.83 0.47zM138.95 0.7c-4.733 0-8.433-1.243-11.1-3.73-2.667-2.48-4-6.103-4-10.87v0c0-4.767 1.333-8.393 4-10.88 2.667-2.48 6.367-3.72 11.1-3.72v0c4.7 0 8.093 1.223 10.18 3.67 2.08 2.453 3.12 5.497 3.12 9.13v0 3.6h-16.2v0.3c0 1.233 0.367 2.14 1.1 2.72 0.733 0.587 1.95 0.88 3.65 0.88v0c2.033 0 3.967-0.15 5.8-0.45 1.833-0.3 3.433-0.683 4.8-1.15v0 8c-1.167 0.633-2.873 1.207-5.12 1.72-2.253 0.52-4.697 0.78-7.33 0.78zM136.05-17.6h5.8v-0.6c0-1.133-0.24-1.95-0.72-2.45-0.487-0.5-1.213-0.75-2.18-0.75v0c-0.967 0-1.69 0.257-2.17 0.77-0.487 0.52-0.73 1.33-0.73 2.43v0zM175.1-28.5c0.667 0 1.3 0.067 1.9 0.2 0.6 0.133 1.1 0.3 1.5 0.5v0 9.55c-1.367-0.567-2.833-0.85-4.4-0.85v0c-2.1 0-3.717 0.55-4.85 1.65-1.133 1.1-1.7 2.733-1.7 4.9v0 4.35h4.5v8.2h-18.2v-8.2h2.2v-11.4h-2.2v-8.2h13.7v3.65c0.933-1.4 2-2.477 3.2-3.23 1.2-0.747 2.65-1.12 4.35-1.12z" fill="#ffffff" fill-rule="nonzero" stroke="none" stroke-width="1" stroke-linecap="butt" stroke-linejoin="miter" stroke-miterlimit="10" stroke-dasharray="" stroke-dashoffset="0" font-family="none" font-weight="none" font-size="none" text-anchor="none" style="mix-blend-mode: normal" data-fill-palette-color="primary" opacity="1"></path></g></svg></g></svg></g></svg></g></svg></g><g transform="matrix(1,0,0,1,0,0.4999999999999858)"><svg viewBox="0 0 200 200" height="200" width="200"><g><svg xmlns="http://www.w3.org/2000/svg" xmlns:xlink="http://www.w3.org/1999/xlink" version="1.1" x="0" y="0" viewBox="17.07 17.07 65.86000000000001 65.86000000000001" enable-background="new 0 0 100 100" xml:space="preserve" height="200" width="200" class="icon-icon-0" data-fill-palette-color="accent" id="icon-0"><path d="M81.68 41.721H58.279V18.32C58.279 17.63 57.719 17.07 57.029 17.07H42.969C42.279 17.07 41.719 17.63 41.719 18.32V41.721H18.32C17.63 41.721 17.07 42.281 17.07 42.971V57.029C17.07 57.719 17.63 58.279 18.32 58.279H41.719V81.68C41.719 82.37 42.279 82.93 42.969 82.93H57.029C57.719 82.93 58.279 82.37 58.279 81.68V58.278H81.68C82.37 58.278 82.93 57.718 82.93 57.028V42.971A1.25 1.25 0 0 0 81.68 41.721M80.43 55.778H57.029C56.339 55.778 55.779 56.338 55.779 57.028V80.43H44.219V57.028C44.219 56.338 43.659 55.778 42.969 55.778H19.57V44.221H42.969C43.659 44.221 44.219 43.661 44.219 42.971V19.57H55.779V42.971C55.779 43.661 56.339 44.221 57.029 44.221H80.43z" fill="#ffffff" data-fill-palette-color="accent"></path></svg></g></svg></g></svg></g><defs></defs></svg><rect width="395.52" height="136.10993024046954" fill="none" stroke="none" visibility="hidden"></rect></g></svg></g></svg>